<?xml version="1.0" encoding="utf-8"?>
<!-- Generator: Adobe Illustrator 18.1.1, SVG Export Plug-In . SVG Version: 6.00 Build 0)  -->
<!DOCTYPE svg PUBLIC "-//W3C//DTD SVG 1.1//EN" "http://www.w3.org/Graphics/SVG/1.1/DTD/svg11.dtd">
<svg width="100" height="100" version="1.1" id="Layer_1" xmlns="http://www.w3.org/2000/svg" xmlns:xlink="http://www.w3.org/1999/xlink" x="0px" y="0px"
	 viewBox="0 0 200 200" style="enable-background:new 0 0 200 200;" xml:space="preserve">
<style type="text/css">
	.st0{fill:#000000;}
</style>
<g>
	<path class="st0" d="M166.3,169.6c0,5.5-4.5,9.9-9.9,9.9H43.7c-5.5,0-9.9-4.5-9.9-9.9V30.4c0-5.5,4.5-9.9,9.9-9.9h66.3
		c5.5,0,13.1,3.2,17,7l32.3,32.3c3.8,3.8,7,11.5,7,17V169.6z M153,166.3V86.7h-43.1c-5.5,0-9.9-4.5-9.9-9.9V33.7H47v132.5H153z
		 M139.8,109.9c0,1.9-1.5,3.3-3.3,3.3H63.6c-1.9,0-3.3-1.5-3.3-3.3v-6.6c0-1.9,1.4-3.3,3.3-3.3h72.9c1.9,0,3.3,1.4,3.3,3.3V109.9z
		 M139.8,136.4c0,1.9-1.5,3.3-3.3,3.3H63.6c-1.9,0-3.3-1.5-3.3-3.3v-6.6c0-1.9,1.4-3.3,3.3-3.3h72.9c1.9,0,3.3,1.4,3.3,3.3V136.4z
		 M152.2,73.5c-0.6-1.8-1.6-3.5-2.3-4.2l-32.4-32.4c-0.7-0.7-2.5-1.7-4.2-2.3v38.9H152.2z"/>
</g>
</svg>
