<?xml version="1.0" encoding="utf-8"?>
<!-- Generator: Adobe Illustrator 18.1.1, SVG Export Plug-In . SVG Version: 6.00 Build 0)  -->
<!DOCTYPE svg PUBLIC "-//W3C//DTD SVG 1.1//EN" "http://www.w3.org/Graphics/SVG/1.1/DTD/svg11.dtd">
<svg width="100" height="100" version="1.1" id="Layer_1" xmlns="http://www.w3.org/2000/svg" xmlns:xlink="http://www.w3.org/1999/xlink" x="0px" y="0px"
	 viewBox="0 0 200 200" style="enable-background:new 0 0 200 200;" xml:space="preserve">
<style type="text/css">
	.st0{fill:#FFFFFF;}
  .st1{fill:#000000;}
</style>
<g>
	<path class="st1" d="M120.9,163H47.1c-13.4,0-22.5-8.2-22.5-21.9c0-19.1,4.5-48.4,29.2-48.4c2.6,0,13.7,11.7,30.2,11.7
		c16.5,0,27.6-11.7,30.2-11.7c24.7,0,29.2,29.3,29.2,48.4C143.4,154.8,134.3,163,120.9,163z M84,98.1c-17.9,0-32.4-14.5-32.4-32.4
		S66.1,33.3,84,33.3s32.4,14.5,32.4,32.4S101.9,98.1,84,98.1z"/>
</g>
<path class="st0" d="M155.5,66c-3,0-5.8,1.2-7.9,3.2l-5.9,5.9l-4.1,4.1l-43,43l-1.5,1.5v2.1v18.4v5h5h18.4h2.1l1.5-1.5l43-43
	l4.1-4.1l5.9-5.9c4.3-4.4,4.3-11.4,0-15.8l-9.7-9.7C161.3,67.2,158.5,66,155.5,66L155.5,66z"/>
<path class="st1" d="M159.6,101.2l-43,43H98.1v-18.4l43-43L159.6,101.2z M121.5,130.7l-9.7-9.7l-7.4,7.4v3.6h6.1v6.1h3.6L121.5,130.7z
	 M140.1,92.1l-22.4,22.4c-0.6,0.6-0.6,1.5-0.1,2.1c0.6,0.6,1.5,0.5,2.1-0.1l22.4-22.4c0.6-0.6,0.6-1.5,0.1-2.1
	C141.6,91.4,140.7,91.5,140.1,92.1z M163.7,97.1l-18.4-18.4l5.9-5.9c2.4-2.4,6.3-2.4,8.7,0l9.7,9.7c2.4,2.4,2.4,6.3,0,8.7
	L163.7,97.1z"/>
</svg>
