<?xml version="1.0" encoding="utf-8"?>
<!-- Generator: Adobe Illustrator 18.1.1, SVG Export Plug-In . SVG Version: 6.00 Build 0)  -->
<!DOCTYPE svg PUBLIC "-//W3C//DTD SVG 1.1//EN" "http://www.w3.org/Graphics/SVG/1.1/DTD/svg11.dtd">
<svg width="100" height="100" version="1.1" id="Layer_1" xmlns="http://www.w3.org/2000/svg" xmlns:xlink="http://www.w3.org/1999/xlink" x="0px" y="0px"
	 viewBox="0 0 200 200" style="enable-background:new 0 0 200 200;" xml:space="preserve">
<style type="text/css">
	.st0{fill:#000000;}
	.st1{fill:#FFFFFF;}
</style>
<g>
	<path class="st0" d="M120.2,162.5H46.9c-13.3,0-22.4-8.1-22.4-21.7c0-19,4.4-48.1,29-48.1c2.6,0,13.6,11.7,30,11.7
		c16.5,0,27.4-11.7,30-11.7c24.6,0,29,29.1,29,48.1C142.6,154.3,133.6,162.5,120.2,162.5z M83.6,98c-17.8,0-32.2-14.4-32.2-32.2
		s14.4-32.2,32.2-32.2s32.2,14.4,32.2,32.2S101.4,98,83.6,98z"/>
</g>
<path class="st1" d="M147.4,75.2h-9.6c-5.4,0-9.8,4.4-9.8,9.8v15.7h-15.7c-5.4,0-9.8,4.4-9.8,9.8v9.6c0,5.4,4.4,9.8,9.8,9.8h15.7
	v15.7c0,5.4,4.4,9.8,9.8,9.8h9.6c5.4,0,9.8-4.4,9.8-9.8v-15.7h15.7c5.4,0,9.8-4.4,9.8-9.8v-9.6c0-5.4-4.4-9.8-9.8-9.8h-15.7V85
	C157.2,79.6,152.8,75.2,147.4,75.2L147.4,75.2z"/>
<path class="st0" d="M177.7,120c0,2.6-2.1,4.8-4.8,4.8h-20.7v20.7c0,2.6-2.1,4.8-4.8,4.8h-9.6c-2.6,0-4.8-2.1-4.8-4.8v-20.7h-20.7
	c-2.6,0-4.8-2.1-4.8-4.8v-9.6c0-2.6,2.1-4.8,4.8-4.8h20.7V85c0-2.6,2.1-4.8,4.8-4.8h9.6c2.6,0,4.8,2.1,4.8,4.8v20.7h20.7
	c2.6,0,4.8,2.1,4.8,4.8V120z"/>
</svg>
