<?xml version="1.0" encoding="utf-8"?>
<!-- Generator: Adobe Illustrator 18.1.1, SVG Export Plug-In . SVG Version: 6.00 Build 0)  -->
<!DOCTYPE svg PUBLIC "-//W3C//DTD SVG 1.1//EN" "http://www.w3.org/Graphics/SVG/1.1/DTD/svg11.dtd">
<svg width="100" height="100" version="1.1" id="Layer_1" xmlns="http://www.w3.org/2000/svg" xmlns:xlink="http://www.w3.org/1999/xlink" x="0px" y="0px"
	 viewBox="0 0 200 200" style="enable-background:new 0 0 200 200;" xml:space="preserve">
<style type="text/css">
	.st0{fill:#000000;}
</style>
<g>
	<path class="st0" d="M54.5,65.9c0,1.2-1.1,2.3-2.3,2.3H38.6c-1.2,0-2.3-1.1-2.3-2.3V52.3c0-1.2,1.1-2.3,2.3-2.3h13.6
		c1.2,0,2.3,1.1,2.3,2.3V65.9z M54.5,93.2c0,1.2-1.1,2.3-2.3,2.3H38.6c-1.2,0-2.3-1.1-2.3-2.3V79.5c0-1.2,1.1-2.3,2.3-2.3h13.6
		c1.2,0,2.3,1.1,2.3,2.3V93.2z M54.5,120.5c0,1.2-1.1,2.3-2.3,2.3H38.6c-1.2,0-2.3-1.1-2.3-2.3v-13.6c0-1.2,1.1-2.3,2.3-2.3h13.6
		c1.2,0,2.3,1.1,2.3,2.3V120.5z M54.5,147.7c0,1.2-1.1,2.3-2.3,2.3H38.6c-1.2,0-2.3-1.1-2.3-2.3v-13.6c0-1.2,1.1-2.3,2.3-2.3h13.6
		c1.2,0,2.3,1.1,2.3,2.3V147.7z M163.6,65.9c0,1.2-1.1,2.3-2.3,2.3H65.9c-1.2,0-2.3-1.1-2.3-2.3V52.3c0-1.2,1.1-2.3,2.3-2.3h95.4
		c1.2,0,2.3,1.1,2.3,2.3V65.9z M163.6,93.2c0,1.2-1.1,2.3-2.3,2.3H65.9c-1.2,0-2.3-1.1-2.3-2.3V79.5c0-1.2,1.1-2.3,2.3-2.3h95.4
		c1.2,0,2.3,1.1,2.3,2.3V93.2z M163.6,120.5c0,1.2-1.1,2.3-2.3,2.3H65.9c-1.2,0-2.3-1.1-2.3-2.3v-13.6c0-1.2,1.1-2.3,2.3-2.3h95.4
		c1.2,0,2.3,1.1,2.3,2.3V120.5z M163.6,147.7c0,1.2-1.1,2.3-2.3,2.3H65.9c-1.2,0-2.3-1.1-2.3-2.3v-13.6c0-1.2,1.1-2.3,2.3-2.3h95.4
		c1.2,0,2.3,1.1,2.3,2.3V147.7z"/>
</g>
</svg>
