<?xml version="1.0" encoding="utf-8"?>
<!-- Generator: Adobe Illustrator 18.1.1, SVG Export Plug-In . SVG Version: 6.00 Build 0)  -->
<!DOCTYPE svg PUBLIC "-//W3C//DTD SVG 1.1//EN" "http://www.w3.org/Graphics/SVG/1.1/DTD/svg11.dtd">
<svg width="100" height="100" version="1.1" id="Layer_1" xmlns="http://www.w3.org/2000/svg" xmlns:xlink="http://www.w3.org/1999/xlink" x="0px" y="0px"
	 viewBox="0 0 200 200" style="enable-background:new 0 0 200 200;" xml:space="preserve">
<style type="text/css">
	.st0{fill:#000000;}
	.st1{fill:#FFFFFF;}
</style>
<g>
	<path class="st0" d="M172.7,40.1l-6.8-6.8v-3.1c0-5.5-4.5-9.9-9.9-9.9h-3.1L139.3,6.7c-1.8-1.9-4.3-2.9-7-2.9c-2.7,0-5.2,1.1-7,2.9
		l-13.5,13.5H99.6H43.3c-5.5,0-9.9,4.5-9.9,9.9v139.1c0,5.5,4.5,9.9,9.9,9.9h112.6c5.5,0,9.9-4.5,9.9-9.9V86.5V56.8
		c3.9,0,7.5-2.4,9-6C176.4,47.2,175.6,42.9,172.7,40.1z M129,10.2c0.9-1,2.2-1.4,3.4-1.4s2.5,0.4,3.4,1.4l10,10H119L129,10.2z
		 M170.3,48.8c-0.7,1.8-2.5,3-4.4,3V40.3l3.3,3.3C170.6,45,171,47.1,170.3,48.8z"/>
	<path class="st1" d="M139.4,116.3c0-1.9-1.4-3.3-3.3-3.3H63.2c-1.9,0-3.3,1.5-3.3,3.3v6.6c0,1.9,1.4,3.3,3.3,3.3h72.9
		c1.9,0,3.3-1.4,3.3-3.3V116.3z"/>
	<path class="st1" d="M139.4,142.8c0-1.9-1.4-3.3-3.3-3.3H63.2c-1.9,0-3.3,1.5-3.3,3.3v6.6c0,1.9,1.4,3.3,3.3,3.3h72.9
		c1.9,0,3.3-1.4,3.3-3.3V142.8z"/>
	<path class="st1" d="M165.9,51.8h-19.1v21c0,2.6-2.2,4.8-4.8,4.8h-19.1c-2.6,0-4.8-2.2-4.8-4.8v-21H98.9c-1.9,0-3.7-1.2-4.4-3
		c-0.7-1.7-0.4-3.8,1-5.2L129,10.2c0.9-1,2.2-1.4,3.4-1.4c1.2,0,2.5,0.4,3.4,1.4l33.5,33.5c1.4,1.3,1.8,3.4,1,5.2
		C169.5,50.6,167.8,51.8,165.9,51.8z"/>
	<path class="st1" d="M142.9,98.6c3,0,5.5-2.5,5.5-5.5c0-3-2.5-5.5-5.5-5.5H121c-3,0-5.5,2.5-5.5,5.5c0,3,2.5,5.5,5.5,5.5H142.9z"/>
	<path class="st1" d="M106.6,89.8c0-1.9-1.4-3.3-3.3-3.3H63.2c-1.9,0-3.3,1.5-3.3,3.3v6.6c0,1.9,1.4,3.3,3.3,3.3h40.1
		c1.9,0,3.3-1.4,3.3-3.3V89.8z"/>
</g>
</svg>
