<?xml version="1.0" encoding="utf-8"?>
<!-- Generator: Adobe Illustrator 18.1.1, SVG Export Plug-In . SVG Version: 6.00 Build 0)  -->
<!DOCTYPE svg PUBLIC "-//W3C//DTD SVG 1.1//EN" "http://www.w3.org/Graphics/SVG/1.1/DTD/svg11.dtd">
<svg width="100" height="100" version="1.1" id="Layer_1" xmlns="http://www.w3.org/2000/svg" xmlns:xlink="http://www.w3.org/1999/xlink" x="0px" y="0px"
	 viewBox="0 0 200 200" style="enable-background:new 0 0 200 200;" xml:space="preserve">
<style type="text/css">
	.st0{fill:#000000;}
	.st1{fill:#FFFFFF;}
</style>
<g>
	<path class="st0" d="M54.5,65.9c0,1.2-1.1,2.3-2.3,2.3H38.6c-1.2,0-2.3-1.1-2.3-2.3V52.3c0-1.2,1.1-2.3,2.3-2.3h13.6
		c1.2,0,2.3,1.1,2.3,2.3V65.9z M54.5,93.2c0,1.2-1.1,2.3-2.3,2.3H38.6c-1.2,0-2.3-1.1-2.3-2.3V79.5c0-1.2,1.1-2.3,2.3-2.3h13.6
		c1.2,0,2.3,1.1,2.3,2.3V93.2z M54.5,120.5c0,1.2-1.1,2.3-2.3,2.3H38.6c-1.2,0-2.3-1.1-2.3-2.3v-13.6c0-1.2,1.1-2.3,2.3-2.3h13.6
		c1.2,0,2.3,1.1,2.3,2.3V120.5z M54.5,147.7c0,1.2-1.1,2.3-2.3,2.3H38.6c-1.2,0-2.3-1.1-2.3-2.3v-13.6c0-1.2,1.1-2.3,2.3-2.3h13.6
		c1.2,0,2.3,1.1,2.3,2.3V147.7z M163.6,65.9c0,1.2-1.1,2.3-2.3,2.3H65.9c-1.2,0-2.3-1.1-2.3-2.3V52.3c0-1.2,1.1-2.3,2.3-2.3h95.4
		c1.2,0,2.3,1.1,2.3,2.3V65.9z M163.6,93.2c0,1.2-1.1,2.3-2.3,2.3H65.9c-1.2,0-2.3-1.1-2.3-2.3V79.5c0-1.2,1.1-2.3,2.3-2.3h95.4
		c1.2,0,2.3,1.1,2.3,2.3V93.2z M163.6,120.5c0,1.2-1.1,2.3-2.3,2.3H65.9c-1.2,0-2.3-1.1-2.3-2.3v-13.6c0-1.2,1.1-2.3,2.3-2.3h95.4
		c1.2,0,2.3,1.1,2.3,2.3V120.5z M163.6,147.7c0,1.2-1.1,2.3-2.3,2.3H65.9c-1.2,0-2.3-1.1-2.3-2.3v-13.6c0-1.2,1.1-2.3,2.3-2.3h95.4
		c1.2,0,2.3,1.1,2.3,2.3V147.7z"/>
</g>
<path class="st1" d="M175.1,48c-3,0-5.8,1.2-7.9,3.2l-54.5,54.5v25.5h25.5l54.5-54.5c4.3-4.4,4.3-11.4,0-15.8l-9.7-9.7
	C180.9,49.2,178.1,48,175.1,48L175.1,48z"/>
<path d="M179.2,83.2l-43,43h-18.4v-18.4l43-43L179.2,83.2z M141.1,112.7l-9.7-9.7l-7.4,7.4v3.6h6.1v6.1h3.6L141.1,112.7z
	 M159.7,74.1l-22.4,22.4c-0.6,0.6-0.6,1.5-0.1,2.1c0.6,0.6,1.5,0.5,2.1-0.1l22.4-22.4c0.6-0.6,0.6-1.5,0.1-2.1
	C161.2,73.4,160.3,73.5,159.7,74.1z M183.3,79.1l-18.4-18.4l5.9-5.9c2.4-2.4,6.3-2.4,8.7,0l9.7,9.7c2.4,2.4,2.4,6.3,0,8.7
	L183.3,79.1z"/>
</svg>
