<?xml version="1.0" encoding="utf-8"?>
<!-- Generator: Adobe Illustrator 18.1.1, SVG Export Plug-In . SVG Version: 6.00 Build 0)  -->
<!DOCTYPE svg PUBLIC "-//W3C//DTD SVG 1.1//EN" "http://www.w3.org/Graphics/SVG/1.1/DTD/svg11.dtd">
<svg width="100" height="100" version="1.1" id="Layer_1" xmlns="http://www.w3.org/2000/svg" xmlns:xlink="http://www.w3.org/1999/xlink" x="0px" y="0px"
	 viewBox="0 0 200 200" style="enable-background:new 0 0 200 200;" xml:space="preserve">
<style type="text/css">
	.st0{fill:#FFFFFF;}
	.st1{fill:#000000;}
</style>
<g>
	<path class="st0" d="M171,81.7l-0.1-8.3l0-0.4l-0.1-0.4c-1.1-6.1-4.3-12.5-8.1-16.3L130.5,24c-3.8-3.8-10.2-7-16.3-8.1l-0.5-0.1
		h-0.5H105v-0.3h-5H43.7c-8.2,0-14.9,6.7-14.9,14.9v139.1c0,8.2,6.7,14.9,14.9,14.9h112.6c8.2,0,14.9-6.7,14.9-14.9V86.7v-5H171z"/>
	<g>
		<path class="st1" d="M166.3,169.6c0,5.5-4.5,9.9-9.9,9.9H43.7c-5.5,0-9.9-4.5-9.9-9.9V30.4c0-5.5,4.5-9.9,9.9-9.9H100v56.3
			c0,5.5,4.5,9.9,9.9,9.9h56.3V169.6z M139.8,116.6c0-1.9-1.4-3.3-3.3-3.3H63.6c-1.9,0-3.3,1.4-3.3,3.3v6.6c0,1.9,1.4,3.3,3.3,3.3
			h72.9c1.9,0,3.3-1.4,3.3-3.3V116.6z M139.8,143.1c0-1.9-1.4-3.3-3.3-3.3H63.6c-1.9,0-3.3,1.4-3.3,3.3v6.6c0,1.9,1.4,3.3,3.3,3.3
			h72.9c1.9,0,3.3-1.4,3.3-3.3V143.1z M113.3,73.5V20.8c5,0.9,10.6,3.6,13.7,6.7l32.3,32.3c3.1,3.1,5.8,8.7,6.7,13.7H113.3z"/>
	</g>
</g>
</svg>
