<?xml version="1.0" encoding="utf-8"?>
<!-- Generator: Adobe Illustrator 18.1.1, SVG Export Plug-In . SVG Version: 6.00 Build 0)  -->
<!DOCTYPE svg PUBLIC "-//W3C//DTD SVG 1.1//EN" "http://www.w3.org/Graphics/SVG/1.1/DTD/svg11.dtd">
<svg width="100" height="100" version="1.1" id="Layer_1" xmlns="http://www.w3.org/2000/svg" xmlns:xlink="http://www.w3.org/1999/xlink" x="0px" y="0px"
	 viewBox="0 0 200 200" style="enable-background:new 0 0 200 200;" xml:space="preserve">
<style type="text/css">
	.st0{fill:#000000;}
</style>
<g>
	<path class="st0" d="M100,32.6c20.1,0,39,8.9,51.8,24.3c0.9,1.1,0.8,2.8-0.2,3.8l-12,12.1c-0.6,0.5-1.4,0.8-2.2,0.8
		c-0.8-0.1-1.6-0.4-2-1.1c-8.6-11.1-21.5-17.5-35.4-17.5c-24.7,0-44.9,20.2-44.9,44.9c0,24.7,20.2,44.9,44.9,44.9
		c11.5,0,22.4-4.4,30.5-12l-12-12.1c-1.7-1.6-2.1-4-1.2-6.1c0.9-2.1,2.9-3.5,5.2-3.5h39.3c3.1,0,5.6,2.5,5.6,5.6v39.3
		c0,2.3-1.4,4.3-3.5,5.2c-2,0.9-4.5,0.4-6.1-1.2l-11.4-11.3c-12.4,11.7-29.1,18.6-46.4,18.6c-37.1,0-67.4-30.3-67.4-67.4
		C32.6,62.9,62.9,32.6,100,32.6z"/>
</g>
</svg>
